<?xml version="1.0" encoding="UTF-8" standalone="no"?>
<!-- Created with Inkscape (http://www.inkscape.org/) -->

<svg
   width="78.641304mm"
   height="18.491199mm"
   viewBox="0 0 78.641304 18.491199"
   version="1.1"
   id="svg5"
   xmlns="http://www.w3.org/2000/svg"
   xmlns:svg="http://www.w3.org/2000/svg"
   xmlns:rdf="http://www.w3.org/1999/02/22-rdf-syntax-ns#"
   xmlns:cc="http://creativecommons.org/ns#"
   xmlns:dc="http://purl.org/dc/elements/1.1/">
  <title
     id="title14165">Padclaws logo</title>
  <defs
     id="defs2" />
  <g
     id="layer1"
     transform="translate(-41.750715,-27.190902)">
    <text
       xml:space="preserve"
       style="font-size:25.4px;fill:#ffffff;stroke:#000000;stroke-width:0.264999"
       x="44.532043"
       y="70.389359"
       id="text2968"><tspan
         id="tspan2966"
         style="fill:#ffffff;stroke-width:0.265"
         x="44.532043"
         y="70.389359" /></text>
    <g
       aria-label="Padclaws"
       id="text3089"
       style="font-size:25.4px;font-family:Cutiful;-inkscape-font-specification:Cutiful;fill:#ffffff;stroke-width:0.264999">
      <path
         d="m 46.119515,33.896502 c 0.1524,-0.1016 0.2794,-0.1778 0.6096,-0.1778 0.2032,0 0.3048,0.2032 0.3048,0.6096 0,1.27 -1.1938,2.489199 -2.1082,2.489199 -0.4826,0 -0.635,-0.3556 -0.635,-1.041399 0,-4.064 2.794,-5.969 7.619999,-5.969 3.8608,0 4.953,1.27 4.953,3.5052 0,2.6416 -1.3208,4.267199 -4.4958,4.800599 0.9144,0.3048 1.7272,0.4572 2.4892,0.4572 3.7592,0 5.5372,-2.997199 5.5372,-5.257799 0,-3.9624 -3.0988,-4.8514 -7.9502,-4.8514 -4.165599,0 -10.693399,0.6858 -10.693399,7.112 0,1.854199 0.8382,2.793999 2.4638,2.793999 1.8288,0 4.1402,-2.032 4.1402,-4.267199 0,-0.6858 -0.3302,-1.016 -0.9906,-1.016 -0.4826,0 -0.9652,0.127 -1.2446,0.8128 z m 8.813799,-2.7686 c -6.883399,0 -7.442199,12.191999 -10.363199,14.122399 7.188199,0 8.204199,-12.522199 10.363199,-14.122399 z"
         style="fill:#99deff"
         id="path14179" />
      <path
         d="m 71.036913,34.607702 c -0.9906,0.254 -1.7272,0.381 -2.159,0.381 -1.1684,0 -1.2192,-0.635 -2.7686,-0.635 -3.4544,0 -7.1628,4.038599 -7.1628,8.737599 0,1.5748 0.6096,2.5908 2.159,2.5908 1.6002,0 2.5146,-0.508 3.5814,-2.032 0,1.4986 1.2192,1.8542 2.3368,1.8542 2.159,0 4.7498,-1.905 4.7498,-3.9624 0,-0.2032 -0.0508,-0.381 -0.1016,-0.5588 -0.8382,1.651 -2.032,3.556 -3.7084,3.556 -0.4572,0 -0.5842,-0.1524 -0.5842,-0.4826 0,-0.1778 0.0254,-0.4572 1.7526,-4.8768 1.3208,-3.403599 1.6256,-4.063999 1.905,-4.571999 z m -9.271,9.042399 c 0,-3.1242 3.3274,-8.407399 4.4704,-8.407399 0.381,0 0.5334,0.254 0.5334,0.787399 0,3.2258 -3.4544,8.5598 -4.3942,8.5598 -0.4064,0 -0.6096,-0.254 -0.6096,-0.9398 z"
         style="fill:#99deff"
         id="path14181" />
      <path
         d="m 79.164918,34.734702 c -0.4318,-0.2286 -0.9144,-0.381 -1.7526,-0.381 -2.7432,0 -6.604,3.860799 -6.604,8.407399 0,1.7272 0.762,2.921 2.4384,2.921 1.3716,0 2.3622,-0.6858 3.3274,-1.9304 0,1.4224 1.2446,1.7526 2.3622,1.7526 1.6256,0 4.7244,-1.524 4.7244,-3.937 0,-0.2032 -0.0762,-0.4064 -0.127,-0.5842 -0.8636,1.651 -2.032,3.556 -3.6576,3.556 -0.4572,0 -0.5842,-0.1524 -0.5842,-0.4826 0,-0.2286 0.1778,-0.3302 3.0988,-8.381999 2.667,-7.4168 3.0226,-8.001 3.3274,-8.4836 -2.2098,0 -3.7338,0.0508 -6.5532,7.5438 z m -5.4356,8.635999 c 0,-2.921 3.0734,-8.000999 4.2164,-8.000999 0.5842,0 0.7112,0.3556 0.7112,0.939799 0,3.3274 -3.302,8.1788 -4.1656,8.1788 -0.4572,0 -0.762,-0.2286 -0.762,-1.1176 z"
         style="fill:#99deff"
         id="path14183" />
      <path
         d="M 88.269421,45.250301 88.09162,43.985943 c -0.750713,0.1778 -1.363136,0.256823 -1.837271,0.256823 -1.758248,0 -2.429938,-0.533401 -2.429938,-3.714053 0,-2.489206 0.09878,-3.615275 1.264358,-3.615275 0.80998,0 1.422403,0.296334 1.718737,0.651935 l 1.284114,-0.80998 c -0.632179,-0.474134 -1.560692,-0.84949 -2.746028,-0.84949 -2.627495,0 -3.891853,1.086558 -3.891853,4.583299 0,3.042362 0.908757,4.761099 3.062118,4.761099 z"
         style="font-size:19.7556px;font-family:'King Richard';-inkscape-font-specification:'King Richard'"
         id="path14185" />
      <path
         d="M 91.825441,45.250301 V 30.39409 h -2.706517 c 0.1778,0.375357 0.256822,0.730957 0.256822,1.086558 v 13.769653 z"
         style="font-size:19.7556px;font-family:'King Richard';-inkscape-font-specification:'King Richard'"
         id="path14187" />
      <path
         d="m 100.71546,45.250301 c -0.27658,-0.434623 -0.3556,-0.67169 -0.3556,-1.205091 v -5.867413 c 0.0198,-1.382892 -0.770472,-2.094094 -2.331165,-2.094094 h -3.931364 l 0.276578,1.343381 c 0.414868,-0.158045 0.790224,-0.237067 1.165581,-0.237067 h 0.98778 c 1.126069,0 1.48167,0.434623 1.48167,1.244602 v 0.513646 c -3.042363,0 -5.037678,0.513646 -5.037678,3.27943 0,2.489205 0.592668,3.022606 2.410183,3.022606 h 1.343381 c 0.296334,0 0.49389,-0.118533 0.651934,-0.316089 l 0.612424,-0.770469 0.05927,1.086558 z m -2.726276,-2.568228 c 0,0.711202 -0.335845,1.422404 -1.30387,1.422404 -0.612423,0 -1.145824,-0.395112 -1.145824,-1.185336 V 41.75356 c 0,-1.343381 0.98778,-1.778004 2.449694,-1.778004 z"
         style="font-size:19.7556px;font-family:'King Richard';-inkscape-font-specification:'King Richard'"
         id="path14189" />
      <path
         d="m 110.09935,45.250301 2.66701,-9.166598 h -1.48167 v 0.138289 c 0,0.454379 -0.0988,0.80998 -0.19756,1.185336 l -1.2446,4.464766 -1.6002,-5.788391 h -2.76579 c 0.33585,0.49389 0.61242,1.16558 0.84949,2.074338 l -1.2446,3.714053 -1.56069,-5.788391 h -2.72628 c 0.25683,0.49389 0.49389,0.908758 0.61243,1.323625 l 2.23238,7.842973 h 1.69898 l 1.71874,-5.254989 1.38289,5.254989 z"
         style="font-size:19.7556px;font-family:'King Richard';-inkscape-font-specification:'King Richard'"
         id="path14191" />
      <path
         d="m 118.0411,45.250301 c 1.5607,0 2.35092,-0.750712 2.35092,-3.022606 0,-1.540937 -0.5334,-2.489206 -2.52872,-2.489206 h -1.04704 c -1.00754,0 -1.44216,-0.256823 -1.44216,-1.145825 0,-1.106313 0.27658,-1.442159 1.36313,-1.442159 h 1.42241 c 0.33584,0 0.73095,0.07902 1.20509,0.256823 l 0.25682,-1.343381 h -4.08941 c -1.54093,0 -2.33116,0.908758 -2.33116,2.489206 0,1.837271 0.889,2.607739 2.66701,2.607739 h 0.96802 c 1.04705,0 1.4224,0.395112 1.4224,1.422403 0,1.185336 -0.49389,1.600204 -1.46191,1.600204 h -2.05458 c -0.29634,0 -0.65194,-0.07902 -1.10632,-0.256823 l -0.29633,1.323625 z"
         style="font-size:19.7556px;font-family:'King Richard';-inkscape-font-specification:'King Richard'"
         id="path14193" />
    </g>
  </g>
  <metadata
     id="metadata4067">
    <rdf:RDF>
      <cc:Work
         rdf:about="">
        <dc:creator>
          <cc:Agent>
            <dc:title>Valentino Gi</dc:title>
          </cc:Agent>
        </dc:creator>
        <dc:title>Padclaws logo</dc:title>
      </cc:Work>
    </rdf:RDF>
  </metadata>
</svg>
